<?xml version="1.0" encoding="UTF-8" standalone="no"?>
<!DOCTYPE svg PUBLIC "-//W3C//DTD SVG 1.1//EN" "http://www.w3.org/Graphics/SVG/1.1/DTD/svg11.dtd">
<svg width="100%" height="100%" viewBox="0 0 679 679" version="1.1" xmlns="http://www.w3.org/2000/svg" xmlns:xlink="http://www.w3.org/1999/xlink" xml:space="preserve" xmlns:serif="http://www.serif.com/" style="fill-rule:evenodd;clip-rule:evenodd;stroke-linejoin:round;stroke-miterlimit:2;">
    <g transform="matrix(1,0,0,1,-5875.69,-284.984)">
        <g transform="matrix(0.543286,0,0,0.543286,5143.35,284.984)">
            <g transform="matrix(1.47748,0,0,1.47803,-5137.11,-666.468)">
                <path d="M4557.86,1060.87L4495.87,1060.87L4495.87,973.623L5127.39,973.623L5127.39,1060.87L5065.4,1060.87L5039.62,1243.01L4583.64,1243.01L4557.86,1060.87Z" style="fill:rgb(204,61,9);"/>
            </g>
            <g transform="matrix(1.16559,0,0,0.878228,-3608.69,-327.489)">
                <path d="M4980.08,1103.93L4980.08,1188.88C4980.08,1200.45 4973.01,1209.84 4964.29,1209.84L4610.58,1209.84C4601.86,1209.84 4594.79,1200.45 4594.79,1188.88L4594.79,933.503L4465.36,933.503C4439.83,933.503 4419.11,905.996 4419.11,872.115L4419.11,693.783C4419.11,659.901 4439.83,632.394 4465.36,632.394L4493.2,632.394C4518.72,632.394 4539.45,659.901 4539.45,693.783L4539.45,775.179C4539.45,775.179 4594.79,775.179 4594.79,775.179L4594.79,624.284C4594.79,547.943 4641.49,485.964 4699.01,485.964L4875.86,485.964C4933.38,485.964 4980.08,547.943 4980.08,624.284L4980.08,943.01L5035.95,943.01L5035.95,857.25C5035.95,823.369 5056.67,795.862 5082.2,795.862L5109.17,795.862C5134.7,795.862 5155.43,823.369 5155.43,857.25L5155.43,1042.54C5155.43,1076.42 5134.7,1103.93 5109.17,1103.93L4980.08,1103.93Z" style="fill:rgb(0,65,70);"/>
            </g>
        </g>
    </g>
</svg>
