<?xml version="1.0" standalone="no"?>
<!DOCTYPE svg PUBLIC "-//W3C//DTD SVG 20010904//EN"
 "http://www.w3.org/TR/2001/REC-SVG-20010904/DTD/svg10.dtd">
<svg version="1.0" xmlns="http://www.w3.org/2000/svg"
 width="1248.000000pt" height="1248.000000pt" viewBox="0 0 1248.000000 1248.000000"
 preserveAspectRatio="xMidYMid meet">
<metadata>
Created by potrace 1.14, written by Peter Selinger 2001-2017
</metadata>
<g transform="translate(0.000000,1248.000000) scale(0.100000,-0.100000)"
fill="#000000" stroke="none">
<path d="M0 6240 l0 -6240 2626 0 2625 0 -3 1675 c-2 921 -6 1675 -9 1675 -3
0 -32 -11 -65 -24 -134 -55 -171 -57 -779 -54 -549 3 -561 4 -618 25 -154 59
-287 173 -351 304 -70 145 -67 62 -64 1415 l3 1219 27 67 c83 206 251 351 458
394 103 21 511 15 583 -9 206 -69 364 -231 424 -433 16 -54 18 -139 21 -1017
2 -625 -1 -970 -7 -995 -6 -20 -25 -54 -42 -75 -86 -104 -244 -110 -341 -13
-66 66 -62 5 -68 1041 -5 921 -5 941 -25 975 -12 21 -39 44 -65 58 -43 22 -54
23 -227 20 -201 -3 -212 -6 -260 -78 l-23 -33 0 -1146 c0 -1071 1 -1148 18
-1180 9 -19 30 -44 45 -55 28 -21 38 -21 555 -21 l527 0 57 27 c79 37 142 98
181 177 l32 66 5 1540 6 1540 22 83 c71 267 239 471 484 587 138 66 204 77
480 82 153 4 283 1 342 -6 307 -36 564 -222 696 -504 81 -173 74 65 80 -2507
l5 -2295 23 -58 c32 -78 92 -151 162 -196 99 -65 112 -66 535 -66 379 0 380 0
417 23 21 13 45 40 57 66 21 42 21 45 21 1590 0 1708 5 1585 -61 1641 -77 64
-206 32 -245 -60 -10 -24 -14 -311 -19 -1355 -4 -789 -11 -1340 -16 -1363 -6
-21 -27 -57 -47 -79 -115 -128 -314 -95 -382 64 l-22 52 5 1351 c4 1218 6
1356 21 1410 61 219 206 375 415 447 56 20 85 23 196 22 114 0 138 -3 197 -26
101 -38 173 -85 242 -159 71 -74 113 -143 148 -239 l23 -65 3 -1607 c3 -1796
7 -1683 -69 -1836 -74 -152 -220 -271 -389 -319 -59 -16 -108 -18 -500 -18
-504 0 -483 -3 -707 92 -10 4 -13 -183 -13 -916 l0 -921 2565 0 2565 0 0 6240
0 6240 -6240 0 -6240 0 0 -6240z m3542 3245 c69 -20 129 -58 187 -120 124
-131 152 -326 71 -491 -131 -266 -496 -322 -701 -107 -133 139 -161 324 -74
499 42 87 111 154 200 195 105 50 203 57 317 24z"/>
<path d="M6052 7370 c-124 -18 -254 -118 -310 -237 l-27 -58 -3 -3537 -2
-3538 590 0 590 0 0 3500 c0 2553 -3 3513 -11 3552 -17 77 -54 144 -113 203
-62 62 -138 101 -226 115 -74 11 -408 11 -488 0z"/>
</g>
</svg>
