<?xml version="1.0" standalone="no"?>
<!DOCTYPE svg PUBLIC "-//W3C//DTD SVG 20010904//EN"
 "http://www.w3.org/TR/2001/REC-SVG-20010904/DTD/svg10.dtd">
<svg version="1.0" xmlns="http://www.w3.org/2000/svg"
 width="1248.000000pt" height="1248.000000pt" viewBox="0 0 1248.000000 1248.000000"
 preserveAspectRatio="xMidYMid meet">
<metadata>
Created by potrace 1.14, written by Peter Selinger 2001-2017
</metadata>
<g transform="translate(0.000000,1248.000000) scale(0.100000,-0.100000)"
fill="#000000" stroke="none">
<path d="M5502 9150 c-237 -62 -410 -234 -483 -480 -21 -71 -22 -98 -26 -477
l-5 -403 -148 0 -148 0 -7 165 c-4 90 -5 171 -2 179 10 25 -10 124 -35 172
-28 57 -85 109 -154 141 -49 22 -67 25 -206 26 -136 1 -159 -1 -208 -21 -71
-28 -135 -89 -169 -161 l-26 -56 -3 -460 c-3 -467 1 -543 35 -608 25 -49 85
-107 137 -135 l51 -27 444 -5 444 -5 1 -617 c1 -610 1 -617 22 -645 11 -15 32
-34 45 -40 19 -10 274 -13 1141 -13 l1117 0 -9 32 c-20 68 50 144 123 133 l37
-5 0 104 c0 103 0 105 -30 134 -34 34 -38 67 -14 113 31 60 127 74 160 23 l16
-24 354 0 354 0 -6 24 c-8 35 5 54 105 152 102 100 114 108 146 102 l23 -5 7
211 c4 116 5 337 3 491 -4 236 -7 287 -22 327 -26 70 -93 140 -166 172 -57 26
-71 28 -213 29 -144 2 -155 0 -207 -24 -77 -36 -124 -80 -157 -147 -28 -57
-28 -58 -31 -294 l-3 -238 -153 0 -153 0 -7 143 c-3 78 -6 439 -6 802 0 640 0
662 -20 735 -67 239 -251 420 -486 480 -73 19 -112 20 -733 19 -612 0 -661 -1
-729 -19z"/>
<path d="M3560 4970 l0 -371 108 3 c106 3 107 3 110 28 6 39 21 50 67 50 54 0
69 -16 50 -53 l-14 -27 103 0 103 0 28 -207 c15 -115 64 -462 109 -773 l81
-565 60 -3 c33 -2 79 -1 103 3 36 5 42 10 42 30 0 13 7 31 16 39 14 14 183 16
1709 16 1168 0 1702 3 1722 11 38 14 102 77 119 116 7 17 50 287 94 600 101
722 98 699 116 736 43 84 118 116 234 98 115 -18 160 -14 201 17 46 35 85 81
99 116 5 15 10 77 10 137 0 125 8 149 49 149 29 0 29 1 36 73 4 39 5 88 3 107
l-3 35 -2677 3 -2678 2 0 -370z"/>
</g>
</svg>
