<?xml version="1.0" standalone="no"?>
<!DOCTYPE svg PUBLIC "-//W3C//DTD SVG 20010904//EN"
 "http://www.w3.org/TR/2001/REC-SVG-20010904/DTD/svg10.dtd">
<svg version="1.0" xmlns="http://www.w3.org/2000/svg"
 width="1248.000000pt" height="1248.000000pt" viewBox="0 0 1248.000000 1248.000000"
 preserveAspectRatio="xMidYMid meet">
<metadata>
Created by potrace 1.14, written by Peter Selinger 2001-2017
</metadata>
<g transform="translate(0.000000,1248.000000) scale(0.100000,-0.100000)"
fill="#000000" stroke="none">
<path d="M5521 9035 c-217 -48 -415 -231 -493 -457 -21 -60 -22 -82 -25 -485
l-4 -423 -153 0 -153 0 -7 103 c-4 56 -6 153 -5 214 1 150 -24 222 -101 287
-77 64 -101 71 -282 74 -164 4 -168 3 -228 -24 -72 -32 -140 -102 -166 -172
-17 -42 -19 -91 -22 -500 -2 -287 1 -473 8 -509 19 -106 74 -183 165 -231 l50
-27 445 -5 445 -5 5 -626 c4 -522 7 -629 19 -643 40 -48 -4 -46 1211 -46 1118
0 1140 0 1140 19 0 30 48 81 76 81 l24 0 2 203 3 202 320 -4 c387 -4 554 4
562 28 8 23 185 201 200 201 7 0 16 12 20 28 5 15 8 245 8 512 0 443 -2 489
-18 537 -26 73 -92 143 -167 177 -59 27 -64 27 -223 24 -145 -3 -167 -5 -208
-26 -61 -30 -113 -81 -147 -145 -27 -52 -27 -53 -30 -289 l-3 -238 -153 0
-153 0 -7 123 c-4 67 -6 428 -6 802 1 662 0 682 -20 755 -35 124 -83 205 -180
301 -70 70 -103 95 -172 128 -146 71 -144 71 -868 70 -511 0 -658 -3 -709 -14z"/>
<path d="M3560 4900 l0 -370 263 0 263 0 83 -592 c46 -326 96 -674 110 -773
l26 -180 68 0 c37 0 876 2 1865 3 l1797 3 46 57 c25 31 51 66 57 78 12 23 182
1209 182 1275 1 113 40 174 111 173 24 -1 52 -10 69 -23 26 -19 42 -21 155
-21 100 0 125 3 125 14 0 7 29 41 64 73 l64 60 3 294 4 294 -2677 3 -2678 2 0
-370z"/>
</g>
</svg>
